<svg aria-hidden="true" style="position: absolute; width: 0; height: 0; overflow: hidden;" version="1.1" xmlns="http://www.w3.org/2000/svg" xmlns:xlink="http://www.w3.org/1999/xlink">
    <defs>
        <symbol id="icon-logo" viewBox="0 0 108 32">
            <title>logo</title>
            <path d="M27.409 9.684l-0-0.005c0 0.029 0.001 0.057 0.001 0.086 0 1.819-0.742 3.464-1.94 4.652l0.006-0.006c-1.528 1.431-3.453 2.444-5.662 2.866l0.039 0.008c1.176 0.277 2.214 0.911 2.999 1.786l-0.005-0.006c0.651 0.76 1.044 1.748 1.044 2.827 0 0.014-0 0.028-0 0.039l-0-0.006c0.001 0.041 0.002 0.083 0.002 0.124 0 1.651-0.606 3.161-1.601 4.31l-0.006 0.008c-1.228 1.333-2.808 2.338-4.664 2.886l0.168-0.045c-2.228 0.695-4.596 1.069-7.053 1.069-0.182 0-0.363-0.003-0.517-0.006-1.077 0-1.939-0.032-2.586-0.097v-0c0 0.003 0 0.006 0 0.010 0 0.573-0.309 1.073-0.776 1.348l0.018-0.009c-0.525 0.296-1.131 0.465-1.777 0.465-0.052 0-0.104-0.002-0.148-0.003l0.010-0.001c-0.080 0.010-0.162 0.015-0.245 0.015-0.527 0-1.007-0.202-1.365-0.531l0.005 0.006c-0.25-0.343-0.398-0.766-0.398-1.223 0-0.107 0.008-0.211 0.022-0.302l0.016-0.287c0.228-3.302 0.63-6.557 1.115-9.199l0.080-0.556c0.569-3.29 1.311-6.521 2.054-9.024l0.003-0.011c0.117-0.491 0.45-0.898 0.903-1.12l-0.027 0.010c0.504-0.217 1.060-0.337 1.643-0.337 0.057 0 0.113 0.002 0.162 0.004 1.314 0 1.972 0.368 1.972 1.099l-0.001 0.005c-0.009 0.371-0.080 0.727-0.194 1.035l0.111-0.402c-0.717 2.238-1.3 4.537-1.792 7.238l0.089-0.525c-0.561 2.758-0.984 5.566-1.285 8.75 1.034 0.086 1.861 0.128 2.521 0.129l-0.041-0.003c0.308 0.022 0.62 0.033 0.934 0.033 2.094 0 4.072-0.495 5.749-1.34l0.022-0.010c1.217-0.626 2.058-1.879 2.095-3.337v0c0-0.002 0-0.004 0-0.006 0-0.977-0.474-1.842-1.212-2.386l0.028 0.017c-1.082-0.691-2.368-1.091-3.747-1.091-0.119 0-0.237 0.003-0.338 0.008l0.004-0c-0.022 0.002-0.044 0.002-0.066 0.002-0.325 0-0.62-0.123-0.842-0.325l0.003 0.004c-0.168-0.229-0.267-0.512-0.267-0.817 0-0.044 0.002-0.087 0.006-0.124l0.001 0.006c-0.002-0.042-0.003-0.085-0.003-0.128 0-0.516 0.145-0.999 0.391-1.397l0.002-0.004c0.303-0.376 0.766-0.616 1.286-0.616 0.047 0 0.093 0.002 0.133 0.005l0.012-0.001c1.48-0.025 2.906-0.271 4.143-0.679l0.050-0.013c1.098-0.335 2.081-0.932 2.875-1.718l-0 0.001c0.659-0.66 1.067-1.57 1.067-2.576 0-0.009-0-0.018-0-0.025v-0.001c-0.004-1.29-0.747-2.407-1.847-2.957l0.069 0.030c-1.509-0.728-3.201-1.136-4.989-1.136-0.259 0-0.516 0.009-0.736 0.024h0.004c-0.025-0-0.051-0-0.076-0-2.356 0-4.636 0.325-6.623 0.889l-0.154 0.035c-1.932 0.513-3.76 1.281-5.341 2.212l0.012-0.008c-0.504 0.346-1.1 0.568-1.758 0.622l0.003-0.001c-0.021 0.002-0.043 0.002-0.064 0.002-0.336 0-0.634-0.158-0.828-0.406l0.004 0.005c-0.196-0.269-0.312-0.6-0.312-0.958 0-0.023 0.001-0.045 0.002-0.065l0.001 0.004c-0.001-0.024-0.001-0.049-0.001-0.073 0-0.483 0.126-0.936 0.34-1.315l0.008-0.010c0.423-0.548 0.97-0.996 1.624-1.315l-0.121 0.062c1.955-1.1 4.080-1.935 6.488-2.486l-0.219 0.045c2.449-0.6 5.009-0.918 7.643-0.918 0.015 0 0.030 0 0.043 0.001 3.899 0 6.817 0.662 8.727 1.972l0.026 0.015c1.712 1.067 2.851 2.966 2.851 5.132 0 0.020-0 0.040-0 0.057zM30.899 30.536l0.002-0c-0.010 0-0.021 0-0.031 0-0.807 0-1.488-0.541-1.702-1.294l0.023 0.088c-0.35-1.147-0.539-2.364-0.539-3.625 0-0.211 0.006-0.421 0.014-0.6l0 0.008c-0-0.049-0-0.098-0-0.148 0-2.8 0.437-5.498 1.196-7.843l0.004-0.017c0.148-0.553 0.487-1.029 0.95-1.357l-0.016 0.009c0.495-0.286 1.069-0.45 1.682-0.45 0.068 0 0.135 0.002 0.192 0.005l-0.007 0.001c0.049-0.004 0.099-0.006 0.149-0.006 0.277 0 0.539 0.062 0.763 0.167l0.002 0.002c0.159 0.122 0.263 0.314 0.263 0.531 0 0.029-0.002 0.058-0.005 0.082l-0.005 0.056c-0.091 0.813-0.262 1.601-0.48 2.271-0.215 0.862-0.38 1.567-0.517 2.262l0.024-0.147c-0.156 0.803-0.27 1.622-0.347 2.538l0.041-0.127c0.591-1.6 1.399-3.095 2.35-4.397l0.019-0.029c0.687-0.964 1.551-1.792 2.582-2.46l-0.018 0.011c0.683-0.443 1.487-0.715 2.362-0.755l-0.010 0.002c0.089-0.013 0.18-0.020 0.272-0.020 1.026 0 1.857 0.832 1.857 1.857 0 0.092-0.007 0.183-0.019 0.262l-0.004 0.058c-0.057 0.709-0.161 1.405-0.287 1.979l0.016-0.081c-0.127 0.537-0.219 1.088-0.275 1.697 0 0.754 0.278 1.13 0.808 1.131l0.025-0.005c0.926-0.183 1.734-0.695 2.302-1.418l0.002-0.002c0.215-0.243 0.523-0.402 0.871-0.419h-0.001c0.005-0 0.009-0 0.013-0 0.275 0 0.516 0.148 0.65 0.372l-0.005-0.008c0.158 0.266 0.249 0.577 0.249 0.909 0 0.030-0.001 0.060-0.002 0.085l-0.001-0.008c0.004 0.052 0.005 0.105 0.005 0.158 0 0.662-0.247 1.267-0.651 1.724l-0.002 0.002c-0.605 0.622-1.303 1.154-2.115 1.598l0.026-0.014c-0.764 0.431-1.647 0.676-2.587 0.676-0.004 0-0.007 0-0.010 0l0.012-0.001c-0.088 0.006-0.177 0.010-0.266 0.010-0.901 0-1.724-0.334-2.347-0.882l0.001 0.001c-0.553-0.569-0.894-1.345-0.894-2.201 0-0.056 0.002-0.112 0.005-0.159v-0c0.001-0.343 0.036-0.678 0.097-0.969 0.043-0.428 0.065-0.719 0.065-0.873-0.001-0.345-0.124-0.515-0.356-0.517l-0.015 0.005c-0.546 0.175-0.997 0.563-1.261 1.079l0.032-0.048c-0.615 0.873-1.14 1.814-1.6 2.909l0.059-0.148c-0.53 1.196-0.962 2.445-1.319 3.897l-0.005 0.029c-0.124 0.749-0.414 1.441-0.82 2.023l0.001-0c-0.336 0.334-0.799 0.54-1.311 0.54-0.056 0-0.112-0.003-0.16-0.007zM48.904 30.536c1.849-0.063 3.434-1.138 4.221-2.687l0.013-0.028c0.268 0.797 0.732 1.469 1.335 1.983l0.007 0.006c0.523 0.45 1.206 0.725 1.955 0.727h0.001c1.104-0.053 2.102-0.472 2.883-1.137l-0.007 0.006c1.057-0.822 1.98-1.735 2.786-2.747l0.025-0.033c0.387-0.497 0.62-1.13 0.62-1.818 0-0.066-0.002-0.131-0.007-0.195l0.001 0.009c0.002-0.032 0.003-0.069 0.003-0.106 0-0.352-0.091-0.683-0.25-0.971l0.005 0.010c-0.13-0.233-0.375-0.388-0.656-0.388-0.002 0-0.005 0-0.008 0h0.001c-0.357 0.011-0.67 0.185-0.871 0.45l-0.002 0.003c-0.758 0.934-1.53 1.773-2.35 2.561l-0.009 0.009c-0.377 0.419-0.892 0.706-1.474 0.79l-0.013 0.002c-0.007 0-0.014 0-0.022 0-0.245 0-0.464-0.113-0.607-0.29l-0.002-0.002c-0.152-0.196-0.244-0.445-0.244-0.716 0-0.021 0.001-0.042 0.002-0.063l-0.001 0.003c0.115-1.899 0.38-3.669 0.786-5.384l-0.042 0.212c0.212-0.914 0.384-2.018 0.479-3.143l0.006-0.089q0-1.131-1.584-1.131c-0.008-0-0.016-0-0.025-0-0.494 0-0.977 0.047-1.445 0.137l0.048-0.008c-0.061-0.375-0.204-0.708-0.409-0.993l0.005 0.007c-0.215-0.177-0.494-0.284-0.798-0.284-0.055 0-0.109 0.004-0.162 0.010l0.007-0.001c-1.589 0.011-3.054 0.537-4.237 1.419l0.019-0.014c-1.339 0.965-2.416 2.212-3.157 3.659l-0.027 0.058c-0.753 1.412-1.196 3.088-1.196 4.868 0 0.010 0 0.020 0.001 0.031v-0.002c-0.004 0.081-0.007 0.175-0.007 0.27 0 1.338 0.452 2.57 1.212 3.553l-0.010-0.013c0.725 0.892 1.823 1.457 3.052 1.457 0.052 0 0.104-0.001 0.155-0.003l-0.008 0zM50.068 27.271c-0.020 0.002-0.043 0.002-0.067 0.002-0.419 0-0.795-0.188-1.047-0.484l-0.002-0.002c-0.257-0.365-0.411-0.818-0.411-1.307 0-0.063 0.003-0.126 0.008-0.188l-0.001 0.008c-0.001-0.013-0.001-0.029-0.001-0.045 0-1.22 0.25-2.383 0.701-3.438l-0.022 0.057c0.416-1.030 1.038-1.901 1.819-2.596l0.007-0.006c0.661-0.604 1.536-0.985 2.498-1.018l0.007-0-1.196 5.947c-0.153 0.848-0.481 1.6-0.948 2.246l0.011-0.016c-0.291 0.468-0.782 0.788-1.351 0.84l-0.007 0zM64.031 30.536l0.002-0c-0.010 0-0.020 0-0.031 0-0.807 0-1.488-0.541-1.702-1.294l0.023 0.088c-0.35-1.147-0.539-2.364-0.539-3.625 0-0.211 0.005-0.421 0.014-0.6l0.001 0.008c-0.001-0.047-0.001-0.095-0.001-0.142 0-2.802 0.437-5.502 1.196-7.848l0.004-0.017c0.149-0.553 0.488-1.028 0.95-1.357l-0.016 0.009c0.495-0.286 1.070-0.45 1.683-0.45 0.067 0 0.134 0.002 0.191 0.005l-0.007 0.001c0.049-0.004 0.099-0.007 0.149-0.007 0.276 0 0.539 0.062 0.762 0.167l0.002 0.002c0.159 0.122 0.263 0.314 0.263 0.53 0 0.029-0.002 0.058-0.005 0.083l-0.005 0.056c-0.091 0.813-0.262 1.601-0.48 2.271-0.215 0.862-0.38 1.567-0.517 2.262l0.024-0.147c-0.156 0.803-0.27 1.622-0.347 2.538l0.041-0.127c0.591-1.6 1.399-3.095 2.35-4.397l0.019-0.029c0.687-0.964 1.552-1.792 2.582-2.46l-0.018 0.011c0.683-0.443 1.487-0.715 2.362-0.755l-0.010 0.002c0.089-0.013 0.181-0.020 0.274-0.020 1.025 0 1.856 0.831 1.856 1.856 0 0.093-0.007 0.184-0.019 0.264l-0.004 0.080c-0.108 1.596-0.361 3.153-0.707 4.477l0.034-0.157c-0.318 1.227-0.536 2.494-0.649 3.873 0.001 0.862 0.317 1.293 0.937 1.293l0.013-0.002c0.598-0.078 1.131-0.367 1.522-0.79l0.012-0.011c0.829-0.784 1.606-1.623 2.363-2.558l0.002-0.003c0.2-0.265 0.514-0.438 0.871-0.45h-0.001c0.003-0 0.005-0 0.008-0 0.281 0 0.525 0.155 0.655 0.388l-0.005-0.010c0.16 0.288 0.25 0.619 0.25 0.971 0 0.037-0.001 0.074-0.003 0.106l-0.001-0.009c0.004 0.065 0.007 0.131 0.007 0.197 0 0.687-0.233 1.319-0.62 1.816l-0.022 0.028c-0.839 1.049-1.824 1.977-2.968 2.784l0.021-0.014c-1.013 0.702-2.242 1.113-3.567 1.113-0.032 0-0.063-0-0.090-0.001l0.010-0.001c-0.078 0.006-0.157 0.009-0.236 0.009-0.888 0-1.69-0.368-2.263-0.962l0.007 0.009c-0.537-0.688-0.857-1.553-0.857-2.493 0-0.098 0.004-0.195 0.010-0.279l0.003-0.056c0.068-1.132 0.229-2.238 0.45-3.176l-0.024 0.114c0.228-0.931 0.377-1.892 0.444-2.926 0-0.344-0.118-0.517-0.356-0.517l-0.015 0.005c-0.508 0.195-0.924 0.578-1.165 1.078l0.039-0.062c-0.597 0.882-1.116 1.822-1.591 2.922l0.057-0.14c-0.539 1.193-0.977 2.442-1.333 3.89l-0.004 0.029c-0.124 0.749-0.414 1.441-0.82 2.023l0.001-0c-0.336 0.334-0.799 0.54-1.31 0.54-0.057 0-0.113-0.003-0.161-0.007zM97.734 23.166c-0.357 0.011-0.67 0.185-0.871 0.45l-0.002 0.003c-0.763 0.943-1.557 1.787-2.407 2.57l-0.017 0.015c-0.463 0.449-1.083 0.738-1.771 0.776l-0.007 0c-0.507-0.031-0.932-0.353-1.112-0.799l-0.004-0.009c-0.347-0.79-0.554-1.711-0.566-2.678l-0.001-0.005c1.699-2.82 3.298-6.1 4.606-9.523l0.145-0.432c1.026-2.498 1.67-5.393 1.776-8.425l0.001-0.043c0.010-0.136 0.016-0.294 0.016-0.453 0-1.241-0.349-2.4-0.955-3.384l0.016 0.028c-0.499-0.76-1.345-1.255-2.308-1.261h-0.001q-2.812 0-4.541 4.444c-1.189 3.141-2.021 6.781-2.334 10.568l-0.010 0.146c-1.639 0.172-3.112 0.77-4.338 1.681l0.024-0.017c-1.277 0.943-2.301 2.157-2.996 3.563l-0.026 0.057c-0.693 1.374-1.099 2.995-1.099 4.71 0 0.031 0.001 0.063 0.001 0.094l-0.001-0.005c-0.004 0.076-0.006 0.164-0.006 0.253 0 1.363 0.484 2.612 1.29 3.586l-0.008-0.009c0.759 0.902 1.889 1.472 3.152 1.472 0.034 0 0.068-0 0.102-0.002l-0.005 0c0.034 0.001 0.075 0.002 0.115 0.002 0.829 0 1.608-0.214 2.284-0.591l-0.024 0.012c0.935-0.631 1.724-1.396 2.363-2.277l0.019-0.027q1.291 2.877 3.749 2.877c1.193-0.040 2.279-0.466 3.146-1.156l-0.011 0.008c1.1-0.81 2.056-1.719 2.887-2.735l0.022-0.028c0.387-0.497 0.62-1.13 0.62-1.818 0-0.066-0.002-0.131-0.007-0.195l0.001 0.009c0.002-0.032 0.003-0.069 0.003-0.106 0-0.352-0.091-0.683-0.25-0.971l0.005 0.010c-0.13-0.233-0.375-0.388-0.656-0.388-0.002 0-0.005 0-0.007 0h0.001zM93.925 3.16c0.283 0.106 0.485 0.367 0.501 0.677l0.001 0.002c0.136 0.506 0.214 1.087 0.214 1.687 0 0.077-0.001 0.155-0.004 0.231l0.001-0.011q0 4.783-3.62 12.67 0.194-3.846 0.63-7.369c0.24-2.163 0.61-4.1 1.114-5.983l-0.063 0.278q0.613-2.182 1.228-2.182v0zM84.617 27.271q-1.616 0-1.616-2.359c-0.001-0.022-0.001-0.047-0.001-0.073 0-1.481 0.44-2.859 1.197-4.011l-0.017 0.028c0.669-1.112 1.696-1.951 2.919-2.364l0.038-0.011q-0.066 1.745-0.065 2.521c-0.001 0.056-0.001 0.122-0.001 0.189 0 1.315 0.118 2.603 0.344 3.853l-0.020-0.131c-0.454 0.705-0.966 1.314-1.545 1.853l-0.006 0.006c-0.325 0.295-0.753 0.482-1.224 0.501l-0.004 0zM101.875 13.179l0.010-0.001c-0.076 0.006-0.153 0.009-0.231 0.009-0.69 0-1.323-0.241-1.815-0.639l-0.001-0.001c-0.421-0.414-0.682-0.991-0.682-1.628 0-0.047 0.001-0.093 0.004-0.133l0.001 0.002c-0.001-0.011-0.001-0.023-0.001-0.035 0-0.749 0.345-1.417 0.889-1.858l-0.005 0.005c0.571-0.478 1.307-0.766 2.109-0.766 0.039 0 0.077 0.001 0.11 0.002l-0.007 0.001c0.051-0.002 0.102-0.004 0.153-0.004 0.674 0 1.296 0.218 1.793 0.581l0.004 0.004c0.452 0.361 0.742 0.918 0.742 1.541 0 0.036-0.001 0.072-0.003 0.103l-0.001-0.007c0.002 0.043 0.004 0.086 0.004 0.129 0 0.762-0.324 1.448-0.843 1.93l0.004-0.004c-0.559 0.478-1.285 0.767-2.079 0.767-0.055 0-0.109-0.002-0.156-0.004zM101.617 30.536q2.78 0 5.979-3.911c0.387-0.497 0.62-1.13 0.62-1.818 0-0.066-0.002-0.131-0.007-0.195l0.001 0.009c0.002-0.032 0.003-0.069 0.003-0.106 0-0.352-0.091-0.683-0.25-0.971l0.005 0.010c-0.13-0.233-0.375-0.388-0.656-0.388-0.002 0-0.005 0-0.007 0h0.001c-0.357 0.011-0.67 0.185-0.871 0.45l-0.002 0.003c-0.753 0.929-1.514 1.761-2.32 2.547l-0.007 0.006c-0.366 0.42-0.87 0.712-1.44 0.806l-0.014 0.002c-0.017 0.002-0.037 0.002-0.058 0.002-0.359 0-0.668-0.21-0.813-0.514l-0.002-0.006c-0.166-0.387-0.263-0.838-0.263-1.311 0-0.062 0.002-0.123 0.005-0.184l-0.001 0.009c0.132-1.778 0.407-3.421 0.818-5.010l-0.043 0.194c0.271-1.067 0.489-2.344 0.607-3.651l0.007-0.099q0-1.099-1.648-1.099c-0.061-0.005-0.133-0.008-0.205-0.008-0.5 0-0.966 0.148-1.356 0.402l0.010-0.006c-0.385 0.374-0.66 0.86-0.772 1.404l-0.004 0.018c-0.354 1.151-0.686 2.585-0.926 4.049l-0.027 0.201c-0.208 1.105-0.342 2.393-0.371 3.706l-0.001 0.027c-0.005 0.103-0.008 0.223-0.008 0.345 0 1.325 0.357 2.566 0.98 3.633l-0.018-0.034c0.61 0.908 1.634 1.497 2.794 1.497 0.091 0 0.182-0.004 0.272-0.011l-0.012 0.001z"></path>
        </symbol>
        <symbol id="icon-chevron-right" viewBox="0 0 24 24">
            <title>chevron-right</title>
            <path d="M9.707 18.707l6-6c0.391-0.391 0.391-1.024 0-1.414l-6-6c-0.391-0.391-1.024-0.391-1.414 0s-0.391 1.024 0 1.414l5.293 5.293-5.293 5.293c-0.391 0.391-0.391 1.024 0 1.414s1.024 0.391 1.414 0z"></path>
        </symbol>
        <symbol id="icon-chevron-left" viewBox="0 0 24 24">
            <title>chevron-left</title>
            <path d="M15.707 17.293l-5.293-5.293 5.293-5.293c0.391-0.391 0.391-1.024 0-1.414s-1.024-0.391-1.414 0l-6 6c-0.391 0.391-0.391 1.024 0 1.414l6 6c0.391 0.391 1.024 0.391 1.414 0s0.391-1.024 0-1.414z"></path>
        </symbol>
        <symbol id="icon-logo2" viewBox="0 0 24 24">
            <title>logo2</title>
            <path d="M6.088 2.123c0-0.46-0.23-0.895-0.639-1.151-0.435-0.281-1.074-0.435-1.944-0.435-0.563 0-1.1 0.077-1.663 0.205-0.486 0.102-0.972 0.281-1.407 0.537-0.153 0.077-0.256 0.179-0.358 0.281-0.051 0.102-0.077 0.205-0.077 0.307 0 0.077 0.026 0.153 0.077 0.23 0.051 0.051 0.128 0.102 0.205 0.077 0.128 0 0.281-0.051 0.384-0.128 0.384-0.23 0.793-0.384 1.228-0.486 0.486-0.128 0.972-0.205 1.484-0.205 0.435-0.026 0.87 0.051 1.253 0.23 0.256 0.128 0.409 0.384 0.409 0.665 0 0.205-0.077 0.435-0.23 0.588-0.179 0.179-0.409 0.307-0.639 0.384-0.307 0.102-0.614 0.153-0.921 0.153-0.128 0-0.23 0.051-0.307 0.128-0.051 0.102-0.102 0.23-0.077 0.333 0 0.077 0.026 0.153 0.051 0.205 0.051 0.051 0.128 0.077 0.205 0.077 0.307-0.026 0.639 0.077 0.895 0.23 0.179 0.128 0.281 0.333 0.281 0.537 0 0.307-0.179 0.588-0.46 0.742-0.46 0.23-0.972 0.333-1.484 0.281-0.153 0-0.333 0-0.563-0.026 0.051-0.614 0.153-1.228 0.256-1.816 0.102-0.512 0.205-1.023 0.384-1.509 0.026-0.077 0.051-0.153 0.051-0.23 0-0.153-0.153-0.256-0.435-0.256-0.128 0-0.281 0.026-0.384 0.077s-0.179 0.153-0.205 0.256c-0.205 0.691-0.358 1.407-0.46 2.123-0.128 0.691-0.205 1.407-0.256 2.097-0.026 0.128 0 0.23 0.077 0.333 0.102 0.077 0.23 0.128 0.358 0.102 0.153 0 0.281-0.026 0.435-0.102 0.102-0.051 0.179-0.179 0.179-0.307 0.153 0.026 0.333 0.026 0.563 0.026 0.563 0 1.1-0.077 1.637-0.23 0.409-0.102 0.767-0.333 1.023-0.639 0.23-0.281 0.358-0.614 0.358-0.972 0-0.23-0.077-0.46-0.23-0.639-0.179-0.205-0.409-0.333-0.665-0.409 0.46-0.077 0.895-0.307 1.253-0.639 0.205-0.256 0.358-0.614 0.358-1.023v0 0zM6.855 6.753c0.128 0 0.23-0.026 0.333-0.128 0.102-0.128 0.153-0.281 0.179-0.46 0.077-0.281 0.153-0.563 0.281-0.819 0.102-0.23 0.205-0.435 0.358-0.639 0.051-0.102 0.153-0.205 0.281-0.23 0.051 0 0.077 0.026 0.077 0.102 0 0.026 0 0.102-0.026 0.205-0.026 0.077-0.026 0.153-0.026 0.205 0 0.205 0.051 0.384 0.205 0.512s0.358 0.205 0.588 0.205c0.205 0 0.384-0.051 0.563-0.153s0.333-0.205 0.46-0.358c0.102-0.102 0.153-0.256 0.153-0.409 0-0.077-0.026-0.153-0.051-0.23-0.026-0.051-0.077-0.077-0.153-0.077s-0.153 0.026-0.205 0.102c-0.128 0.153-0.307 0.281-0.512 0.307-0.128 0-0.179-0.077-0.179-0.256 0-0.128 0.026-0.23 0.051-0.358 0.026-0.153 0.051-0.307 0.077-0.46 0.026-0.23-0.128-0.435-0.358-0.46-0.051 0-0.077 0-0.128 0-0.179 0-0.358 0.077-0.512 0.153-0.23 0.153-0.409 0.333-0.588 0.563-0.23 0.307-0.409 0.639-0.537 0.998 0.026-0.179 0.051-0.358 0.077-0.537 0.026-0.153 0.077-0.307 0.102-0.512 0.051-0.179 0.077-0.333 0.102-0.512 0-0.051-0.026-0.102-0.051-0.128-0.051-0.026-0.128-0.051-0.205-0.026-0.153 0-0.281 0.026-0.409 0.102-0.102 0.077-0.179 0.179-0.205 0.307-0.179 0.563-0.256 1.177-0.256 1.765-0.026 0.307 0.026 0.614 0.102 0.921 0.077 0.179 0.23 0.307 0.409 0.307v0 0zM10.846 6.753c0.409-0.026 0.767-0.256 0.946-0.614 0.051 0.179 0.153 0.333 0.307 0.435 0.128 0.102 0.281 0.153 0.435 0.153 0.23 0 0.46-0.102 0.639-0.256 0.23-0.179 0.435-0.384 0.614-0.614 0.102-0.128 0.153-0.281 0.128-0.435 0-0.077-0.026-0.153-0.051-0.23-0.026-0.051-0.077-0.077-0.153-0.077s-0.153 0.051-0.205 0.102c-0.153 0.205-0.333 0.384-0.512 0.563-0.077 0.102-0.205 0.153-0.333 0.179-0.051 0-0.102-0.026-0.128-0.077s-0.051-0.102-0.051-0.179c0.026-0.384 0.077-0.767 0.153-1.151 0.051-0.23 0.077-0.486 0.102-0.716 0-0.179-0.128-0.256-0.358-0.256-0.102 0-0.205 0-0.307 0.026 0-0.077-0.051-0.153-0.102-0.23-0.051-0.051-0.128-0.077-0.205-0.051-0.333 0-0.665 0.102-0.946 0.307-0.307 0.205-0.537 0.486-0.716 0.819s-0.256 0.716-0.256 1.074c-0.026 0.307 0.077 0.614 0.256 0.844 0.205 0.281 0.46 0.384 0.742 0.384v0 0zM11.101 6.037c-0.102 0-0.179-0.026-0.256-0.102-0.077-0.102-0.102-0.205-0.102-0.333 0-0.256 0.051-0.512 0.153-0.767 0.077-0.23 0.23-0.409 0.409-0.588 0.153-0.128 0.358-0.23 0.563-0.23l-0.256 1.33c-0.026 0.179-0.102 0.358-0.205 0.486-0.077 0.128-0.179 0.179-0.307 0.205 0 0 0 0 0 0zM14.197 6.753c0.128 0 0.23-0.026 0.333-0.128 0.102-0.128 0.153-0.281 0.179-0.46 0.077-0.281 0.153-0.563 0.281-0.819 0.102-0.23 0.205-0.435 0.333-0.639 0.051-0.102 0.153-0.205 0.256-0.23 0.051 0 0.077 0.051 0.077 0.102-0.026 0.205-0.051 0.409-0.102 0.614-0.051 0.23-0.077 0.486-0.102 0.716s0.051 0.435 0.179 0.614c0.153 0.153 0.358 0.23 0.563 0.205 0.281 0 0.563-0.077 0.793-0.256 0.256-0.179 0.46-0.384 0.665-0.614 0.102-0.128 0.153-0.281 0.128-0.435 0-0.077-0.026-0.153-0.051-0.23-0.026-0.051-0.077-0.077-0.153-0.077s-0.153 0.051-0.205 0.102c-0.153 0.205-0.333 0.384-0.537 0.563-0.077 0.102-0.205 0.153-0.333 0.179-0.128 0-0.205-0.102-0.205-0.281 0.026-0.281 0.077-0.563 0.128-0.819 0.077-0.333 0.128-0.665 0.153-0.998 0.026-0.23-0.128-0.435-0.358-0.46-0.051 0-0.077 0-0.128 0-0.179 0-0.358 0.077-0.512 0.153-0.23 0.153-0.409 0.333-0.588 0.563-0.23 0.307-0.409 0.639-0.537 0.998 0.026-0.179 0.051-0.358 0.077-0.537 0.026-0.153 0.077-0.307 0.102-0.512 0.051-0.179 0.077-0.333 0.102-0.512 0-0.051-0.026-0.102-0.051-0.128-0.051-0.026-0.128-0.051-0.205-0.026-0.153 0-0.281 0.026-0.409 0.102-0.102 0.077-0.179 0.179-0.205 0.307-0.179 0.563-0.256 1.177-0.256 1.765-0.026 0.307 0.026 0.614 0.102 0.921 0.153 0.128 0.307 0.256 0.486 0.256v0 0zM21.666 5.116c-0.077 0-0.153 0.051-0.205 0.102-0.153 0.205-0.333 0.384-0.537 0.563-0.102 0.102-0.256 0.153-0.384 0.179-0.102 0-0.205-0.077-0.256-0.179-0.077-0.179-0.128-0.384-0.128-0.588 0.409-0.691 0.767-1.432 1.049-2.2 0.23-0.588 0.384-1.228 0.384-1.867 0.026-0.307-0.051-0.588-0.205-0.844-0.102-0.179-0.307-0.281-0.512-0.281-0.409 0-0.742 0.333-0.998 0.972-0.281 0.767-0.46 1.56-0.512 2.379-0.358 0.026-0.665 0.153-0.946 0.358s-0.512 0.486-0.665 0.793c-0.153 0.333-0.256 0.691-0.256 1.074-0.026 0.307 0.077 0.614 0.281 0.844 0.179 0.205 0.435 0.333 0.716 0.333 0.179 0 0.358-0.051 0.537-0.128 0.205-0.128 0.384-0.307 0.537-0.512 0.179 0.435 0.46 0.639 0.819 0.639 0.256 0 0.486-0.102 0.691-0.256 0.23-0.179 0.46-0.384 0.639-0.614 0.102-0.128 0.153-0.281 0.128-0.435 0-0.077-0.026-0.153-0.051-0.23 0-0.077-0.077-0.102-0.128-0.102v0 0zM20.822 0.691c0.051 0.026 0.102 0.077 0.102 0.153 0.026 0.128 0.051 0.281 0.051 0.435 0 0.716-0.256 1.637-0.793 2.814 0.026-0.563 0.077-1.1 0.128-1.637 0.051-0.435 0.128-0.844 0.23-1.253 0.102-0.358 0.179-0.512 0.281-0.512 0 0 0 0 0 0zM18.75 6.037c-0.23 0-0.358-0.179-0.358-0.512 0-0.307 0.077-0.639 0.256-0.895 0.153-0.256 0.384-0.435 0.665-0.537 0 0.256-0.026 0.435-0.026 0.563 0 0.281 0.026 0.588 0.077 0.87-0.102 0.153-0.205 0.281-0.333 0.409-0.077 0.051-0.179 0.102-0.281 0.102v0 0zM22.587 2.916c0.179 0 0.358-0.051 0.486-0.179s0.205-0.281 0.179-0.46c0-0.153-0.051-0.281-0.153-0.358-0.128-0.102-0.281-0.128-0.435-0.128-0.179 0-0.358 0.051-0.486 0.179-0.128 0.102-0.205 0.256-0.205 0.409s0.051 0.281 0.153 0.384c0.128 0.102 0.281 0.153 0.46 0.153v0 0zM22.535 6.753c0.409 0 0.844-0.281 1.33-0.87 0.102-0.128 0.153-0.281 0.128-0.435 0-0.077-0.026-0.153-0.051-0.23-0.026-0.051-0.077-0.077-0.153-0.077s-0.153 0.051-0.205 0.102c-0.153 0.205-0.333 0.384-0.512 0.563-0.077 0.102-0.205 0.153-0.333 0.179-0.077 0-0.153-0.051-0.205-0.102-0.051-0.102-0.051-0.205-0.051-0.333 0.026-0.358 0.077-0.716 0.179-1.074 0.077-0.281 0.102-0.563 0.128-0.819 0-0.153-0.128-0.256-0.358-0.256-0.128 0-0.23 0.026-0.333 0.077-0.077 0.077-0.153 0.205-0.179 0.307-0.102 0.307-0.153 0.614-0.205 0.946-0.051 0.281-0.077 0.537-0.077 0.819-0.026 0.307 0.051 0.614 0.205 0.87 0.153 0.23 0.409 0.358 0.691 0.333 0 0 0 0 0 0z"></path>
        </symbol>
        <symbol id="icon-arrow-to-right" viewBox="0 0 24 24">
            <title>arrow-to-right</title>
            <path d="M0.003 11.707v-0.587h23.788v0.587h-23.788zM23.991 11.507l-0.4 0.413-7.929-8.173 0.4-0.413 7.929 8.173zM23.583 11.507l0.415 0.4-7.929 8.76-0.415-0.4 7.929-8.76z"></path>
        </symbol>
        <symbol id="icon-behance" viewBox="0 0 24 24">
            <title>behance</title>
            <path d="M15.723 5.821h5.963v1.499h-5.963v-1.499zM23.985 14.815h-7.795c0.1 1.899 0.999 2.598 2.665 2.598 1.199 0 2.132-0.366 2.332-1.033h2.365c-0.833 2.565-2.365 3.298-4.797 3.298-3.431-0.033-5.53-2.365-5.53-5.73-0.167-2.998 2.132-5.53 5.097-5.696 0.133 0 0.267 0 0.4 0 3.698 0 5.463 3.265 5.263 6.562v0zM16.19 12.616h4.83c-0.267-1.499-0.933-2.132-2.365-2.132-1.233-0.133-2.332 0.766-2.465 1.999 0 0.033 0 0.1 0 0.133v0zM12.459 15.015c0 3.031-2.565 4.331-5.263 4.331h-7.195v-15.024h6.996c2.832 0 4.764 0.999 4.764 3.798 0.033 1.366-0.766 2.598-2.032 3.131 1.699 0.433 2.865 2.032 2.732 3.764v0zM6.063 6.853h-3.065v3.498h3.298c0.933 0.167 1.832-0.466 1.965-1.432 0.033-0.133 0.033-0.233 0.033-0.366 0-1.432-1.066-1.699-2.232-1.699v0zM6.562 12.583h-3.564v4.097h3.498c1.299 0 2.432-0.433 2.432-1.965-0.033-1.532-0.966-2.132-2.365-2.132v0z"></path>
        </symbol>
        <symbol id="icon-clock" viewBox="0 0 24 24">
            <title>clock</title>
            <path d="M11.998 1.495c0.004 0 0.008 0 0.012 0 5.809 0 10.518 4.709 10.518 10.518s-4.709 10.518-10.518 10.518c-5.809 0-10.518-4.709-10.518-10.518 0-0.004 0-0.009 0-0.013v0.001c0.007-5.799 4.706-10.498 10.505-10.505h0.001zM11.998-0.006c-6.631 0-12.006 5.375-12.006 12.006s5.375 12.006 12.006 12.006c6.631 0 12.006-5.375 12.006-12.006v0c0-6.631-5.375-12.006-12.006-12.006v0 0zM11.998 3.746v0c-0.414 0-0.75 0.336-0.75 0.75v7.504c0 0.414 0.336 0.75 0.75 0.75s0.75-0.336 0.75-0.75v-7.504c0-0.414-0.336-0.75-0.75-0.75zM16.29 16.296c-0.136 0.136-0.324 0.221-0.532 0.221s-0.396-0.084-0.532-0.221l-3.714-3.714c-0.12-0.132-0.193-0.309-0.193-0.502 0-0.414 0.336-0.75 0.75-0.75 0.195 0 0.373 0.074 0.506 0.196l-0.001-0.001 3.714 3.714c0.136 0.135 0.22 0.322 0.22 0.528s-0.084 0.393-0.22 0.528l-0 0z"></path>
        </symbol>
        <symbol id="icon-cup" viewBox="0 0 24 24">
            <title>cup</title>
            <path d="M11.945 14.324c-4.151 0-7.534-3.641-7.534-8.11v-4.847c0-0.419 0.338-0.759 0.756-0.762h13.551c0.419 0.001 0.757 0.341 0.756 0.759 0 0.001 0 0.002 0 0.002v4.847c-0.001 4.469-3.378 8.11-7.528 8.11zM5.922 2.129v4.085c0 3.635 2.699 6.592 6.023 6.592s6.022-2.957 6.022-6.592v-4.085h-12.045zM11.933 21.085c-0.415-0.001-0.751-0.338-0.75-0.753 0-0.001 0-0.002 0-0.002v-6.292c0-0.416 0.337-0.753 0.753-0.753s0.753 0.337 0.753 0.753v6.292c0.002 0.416-0.334 0.754-0.75 0.756-0.002 0-0.004 0-0.006 0v0zM15.016 21.097h-6.088c-0.42 0-0.762-0.341-0.762-0.762s0.341-0.762 0.762-0.762v0h6.088c0.42 0.005 0.758 0.351 0.752 0.771-0.005 0.413-0.34 0.747-0.752 0.752v0zM17.271 23.394h-10.593c-0.419 0-0.759-0.34-0.759-0.759s0.34-0.759 0.759-0.759h10.593c0.419 0.005 0.755 0.35 0.749 0.768-0.005 0.411-0.338 0.744-0.749 0.749v0zM18.89 8.968c-0.419 0-0.759-0.34-0.759-0.759s0.34-0.759 0.759-0.759c1.338 0 2.309-0.366 2.897-1.086 0.541-0.797 0.787-1.758 0.696-2.717h-3.467c-0.419 0-0.759-0.34-0.759-0.759s0.34-0.759 0.759-0.759h4.145c0.359 0.002 0.666 0.255 0.738 0.606 0.018 0.108 0.528 2.771-0.942 4.583-0.881 1.098-2.255 1.65-4.067 1.65v0zM5.107 8.968c-1.812 0-3.179-0.552-4.067-1.65-1.464-1.812-0.96-4.475-0.936-4.583 0.068-0.353 0.378-0.608 0.738-0.606h4.145c0.419 0 0.759 0.34 0.759 0.759s-0.34 0.759-0.759 0.759h-3.473c-0.089 0.96 0.16 1.921 0.702 2.717 0.582 0.72 1.56 1.086 2.891 1.086 0.419 0 0.759 0.34 0.759 0.759s-0.34 0.759-0.759 0.759v0z"></path>
        </symbol>
        <symbol id="icon-dribbble" viewBox="0 0 24 24">
            <title>dribbble</title>
            <path d="M23.738 9.583c-0.179-0.857-0.421-1.609-0.732-2.324l0.030 0.076c-0.336-0.785-0.706-1.456-1.133-2.085l0.028 0.043c-0.875-1.282-1.949-2.357-3.19-3.205l-0.041-0.027c-0.587-0.404-1.259-0.774-1.966-1.077l-0.076-0.029c-0.639-0.281-1.391-0.524-2.171-0.689l-0.077-0.014c-0.727-0.155-1.561-0.244-2.417-0.244s-1.69 0.089-2.496 0.257l0.079-0.014c-0.857 0.179-1.609 0.421-2.324 0.732l0.076-0.030c-0.783 0.328-1.454 0.698-2.080 1.13l0.038-0.025c-1.282 0.875-2.357 1.949-3.205 3.19l-0.027 0.041c-0.404 0.587-0.774 1.259-1.077 1.966l-0.029 0.076c-0.281 0.639-0.524 1.391-0.689 2.171l-0.014 0.077c-0.155 0.727-0.244 1.561-0.244 2.417s0.089 1.69 0.257 2.496l-0.014-0.079c0.179 0.857 0.421 1.609 0.732 2.324l-0.030-0.076c0.331 0.783 0.701 1.455 1.131 2.082l-0.026-0.040c0.875 1.282 1.949 2.357 3.19 3.205l0.041 0.027c0.588 0.407 1.26 0.777 1.968 1.077l0.074 0.028c0.639 0.281 1.391 0.524 2.171 0.689l0.077 0.014c0.727 0.155 1.561 0.244 2.417 0.244s1.69-0.089 2.496-0.257l-0.079 0.014c0.857-0.179 1.609-0.421 2.324-0.732l-0.076 0.030c0.783-0.331 1.455-0.701 2.082-1.131l-0.040 0.026c1.282-0.875 2.357-1.949 3.205-3.19l0.027-0.041c0.399-0.586 0.769-1.257 1.075-1.963l0.031-0.080c0.281-0.639 0.524-1.391 0.689-2.171l0.014-0.077c0.155-0.727 0.244-1.561 0.244-2.417s-0.089-1.69-0.257-2.496l0.014 0.079zM22.23 11.897c-1.409-0.294-3.028-0.463-4.687-0.463-0.863 0-1.716 0.046-2.556 0.135l0.105-0.009c-0.066-0.169-0.141-0.347-0.215-0.525-0.215-0.506-0.44-1.002-0.684-1.489 2.296-0.847 4.222-2.239 5.687-4.024l0.018-0.023c1.43 1.727 2.306 3.958 2.332 6.392l0 0.006zM18.754 4.319c-1.359 1.707-3.178 2.994-5.27 3.678l-0.079 0.022c-1.263-2.295-2.531-4.245-3.924-6.096l0.093 0.129c0.726-0.185 1.56-0.29 2.419-0.29 2.598 0 4.969 0.97 6.772 2.567l-0.011-0.009zM9.536 2.061v0zM7.616 2.735c1.239 1.678 2.497 3.605 3.645 5.603l0.158 0.298c-2.83 0.777-6.083 1.234-9.439 1.255l-0.013 0c0.69-3.186 2.784-5.776 5.587-7.13l0.061-0.027zM1.752 12c0-0.112 0-0.215 0.009-0.328 0.059 0 0.128 0.001 0.197 0.001 3.674 0 7.224-0.531 10.577-1.519l-0.264 0.067c0.29 0.571 0.571 1.152 0.834 1.733-0.141 0.037-0.272 0.084-0.403 0.122-3.525 1.29-6.399 3.656-8.297 6.695l-0.040 0.068h0.009c-1.627-1.797-2.623-4.192-2.623-6.82 0-0.006 0-0.013 0-0.019v0.001zM11.991 22.239c-0.005 0-0.011 0-0.017 0-2.479 0-4.752-0.885-6.52-2.355l0.017 0.013 0.225 0.178s1.967-4.281 8.037-6.398c0.019-0.010 0.041-0.017 0.065-0.019l0.001-0c0.884 2.203 1.643 4.811 2.15 7.508l0.042 0.267c-1.181 0.509-2.556 0.805-4 0.806h-0zM17.714 20.496c-0.521-2.808-1.212-5.264-2.097-7.624l0.101 0.308c0.658-0.105 1.416-0.165 2.188-0.165 1.495 0 2.937 0.225 4.295 0.642l-0.103-0.027c-0.474 2.873-2.086 5.3-4.349 6.844l-0.035 0.023z"></path>
        </symbol>
        <symbol id="icon-envelope" viewBox="0 0 24 24">
            <title>envelope</title>
            <path d="M22.105 5.189c0.417 0 0.375-0.042 0.375 0.375v12.136c0 0.417 0.042 1.136-0.375 1.136h-19.475c-0.556-0.142-0.988-0.579-1.126-1.136v-12.136c0-0.417 0.709-0.375 1.126-0.375h19.1zM22.105 3.667h-19.475c-1.251 0-2.627 0.636-2.627 1.897v12.136c0.137 1.394 1.234 2.5 2.627 2.648h19.475c1.241 0 1.877-1.397 1.877-2.648v-12.136c0.131-0.914-0.503-1.763-1.418-1.894-0.152-0.023-0.307-0.024-0.459-0.003v0zM11.992 15.114c-0.181 0.001-0.356-0.066-0.49-0.188l-11.239-9.102c-0.312-0.274-0.345-0.749-0.073-1.063 0.26-0.313 0.724-0.357 1.036-0.098 0.005 0.004 0.011 0.009 0.017 0.015l10.749 8.674 10.749-8.674c0.305-0.268 0.77-0.239 1.038 0.067 0.005 0.005 0.009 0.011 0.015 0.017 0.272 0.315 0.239 0.789-0.073 1.063l-11.239 9.102c-0.134 0.122-0.309 0.189-0.49 0.188v0z"></path>
        </symbol>
        <symbol id="icon-eye" viewBox="0 0 24 24">
            <title>eye</title>
            <path d="M12 5.267c-7.867 0-12 5.8-12 6.733s4.133 6.733 12 6.733 12-5.8 12-6.733c0-0.933-4.133-6.733-12-6.733zM12 17.167c-2.933 0-5.333-2.3-5.333-5.167s2.4-5.167 5.333-5.167 5.333 2.3 5.333 5.167-2.4 5.167-5.333 5.167zM12 12c-0.5-0.533 0.8-2.6 0-2.6-1.467 0-2.667 1.167-2.667 2.6s1.2 2.6 2.667 2.6 2.667-1.167 2.667-2.6c0-0.667-2.267 0.467-2.667 0z"></path>
        </symbol>
        <symbol id="icon-facebook" viewBox="0 0 24 24">
            <title>facebook</title>
            <path d="M18.667 4.16h-3.813c-0.453 0-0.96 0.587-0.96 1.387v2.747h4.773v3.92h-4.773v11.787h-4.48v-11.76h-4.080v-3.92h4.080v-2.32c0-3.307 2.293-6 5.44-6h3.813v4.16z"></path>
        </symbol>
        <symbol id="icon-feather" viewBox="0 0 24 24">
            <title>feather</title>
            <path d="M5.094 23.71c0.36-1.201 0.913-2.906 1.681-5.355 3.242-0.528 4.587 0.408 6.652-3.338-1.681 0.528-3.698-0.961-3.578-1.609s4.707 0.456 7.709-3.891c-3.794 0.841-4.995-1.033-4.515-1.297 1.129-0.648 4.467-0.264 6.268-2.041 0.913-0.913 1.345-3.122 0.985-3.915-0.456-0.961-3.194-2.378-4.707-2.257-1.513 0.144-3.891 5.86-4.587 5.836-0.696-0.048-0.841-2.57 0.384-4.923-1.321 0.576-3.698 2.378-4.443 3.939-1.393 2.882 0.12 9.51-0.36 9.75s-2.113-3.050-2.618-4.515c-0.648 2.257-0.648 4.539 1.297 7.565-0.744 1.993-1.129 4.275-1.201 5.452-0.024 0.937 0.865 1.129 1.033 0.6z"></path>
        </symbol>
        <symbol id="icon-forrst" viewBox="0 0 24 24">
            <title>forrst</title>
            <path d="M22.219 23.756c-0.101 0.15-0.269 0.241-0.45 0.244h-8.297v-4.5l3.684-2.25c0.414 0 0.75-0.336 0.75-0.75s-0.336-0.75-0.75-0.75l-3.684 2.25v-2.625l2.213-1.125c0.414 0 0.75-0.336 0.75-0.75s-0.336-0.75-0.75-0.75l-2.213 1.125v-1.125c0.003-0.411-0.328-0.746-0.739-0.75-0.001 0-0.001 0-0.002 0h-1.472c-0.409 0.006-0.735 0.341-0.731 0.75v4.753l-2.953-1.003c-0.414 0-0.75 0.336-0.75 0.75s0.336 0.75 0.75 0.75l2.953 1.003v4.997h-8.297c-0.182 0.002-0.352-0.090-0.45-0.244-0.103-0.156-0.121-0.353-0.047-0.525l9.788-22.903c0.085-0.199 0.28-0.327 0.497-0.328 0.214 0.001 0.406 0.13 0.487 0.328l9.759 22.903c0.074 0.172 0.056 0.369-0.047 0.525z"></path>
        </symbol>
        <symbol id="icon-friends" viewBox="0 0 24 24">
            <title>friends</title>
            <path d="M9.411 5.255c2.167 0 4.085 1.825 4.085 2.931v3.164c0 1.168-0.365 3.411-1.659 4.427-0.35 0.277-0.573 0.702-0.573 1.179 0 0.565 0.313 1.057 0.775 1.312l0.008 0.004 4.722 2.615c0.042 0.019 0.094 0.044 0.138 0.063 0.134 0.062 0.248 0.127 0.355 0.201l-0.008-0.005v1.358h-15.752v-1.339c0.11-0.082 0.234-0.157 0.365-0.221l0.014-0.006c0.041-0.016 0.075-0.033 0.107-0.052l-0.003 0.002 4.844-2.627c0.471-0.257 0.785-0.749 0.785-1.315 0-0.471-0.218-0.892-0.559-1.165l-0.003-0.002c-1.257-1.011-1.796-3.24-1.796-4.427v-3.164c0-1.080 2.031-2.931 4.158-2.931zM9.412 3.752c-2.798 0-5.658 2.337-5.658 4.434v3.164c0 1.377 0.585 4.175 2.358 5.596l-4.844 2.621s-1.263 0.568-1.263 1.269v1.901c0.002 0.697 0.566 1.261 1.263 1.263h16.219c0.697-0.002 1.261-0.566 1.263-1.263v-1.901c0-0.745-1.263-1.269-1.263-1.269l-4.722-2.608c1.755-1.383 2.232-4.093 2.232-5.608v-3.164c0-2.097-2.787-4.434-5.585-4.434v0zM22.738 15.84l-4.792-2.615c1.755-1.377 2.302-4.093 2.302-5.608v-3.164c0-2.097-2.857-4.453-5.655-4.453-1.901 0.062-3.59 0.919-4.754 2.247l-0.006 0.008c0.669 0 1.319 0.081 1.942 0.233l-0.056-0.012c0.783-0.611 1.781-0.979 2.865-0.979 0.003 0 0.007 0 0.010 0h-0.001c2.166 0 4.155 1.851 4.155 2.956v3.164c0 1.175-0.435 3.411-1.729 4.434-0.35 0.276-0.573 0.7-0.573 1.176 0 0.564 0.313 1.055 0.775 1.309l0.008 0.004 4.792 2.615c0.038 0.023 0.083 0.046 0.13 0.066l0.008 0.003c0.133 0.056 0.247 0.12 0.353 0.194l-0.006-0.004v1.333h-3.028c0.413 0.384 0.694 0.905 0.771 1.491l0.001 0.013h2.488c0.698-0.003 1.263-0.57 1.263-1.268 0-0 0-0.001 0-0.001v0-1.876c0-0.745-1.263-1.263-1.263-1.263z"></path>
        </symbol>
        <symbol id="icon-google-plus" viewBox="0 0 24 24">
            <title>google-plus</title>
            <path d="M1.298 6.087c0 2.007 0.669 3.451 1.98 4.281 1.070 0.696 2.328 0.803 2.97 0.803 0.161 0 0.294 0 0.375 0 0 0-0.214 1.338 0.776 2.675h-0.054c-1.712 0-7.357 0.348-7.357 4.976 0.054 4.709 5.217 4.95 6.26 4.95 0.080 0 0.134 0 0.134 0s0.080 0 0.214 0c0.669 0 2.381-0.080 3.986-0.856 2.060-1.017 3.13-2.756 3.13-5.19 0-2.354-1.605-3.772-2.756-4.789-0.722-0.615-1.338-1.177-1.338-1.686 0-0.535 0.455-0.936 1.017-1.445 0.91-0.829 1.793-2.007 1.793-4.227 0-1.953-0.241-3.264-1.819-4.093 0.161-0.080 0.749-0.134 1.017-0.187 0.856-0.107 2.087-0.241 2.087-0.936v-0.134h-6.153c-0.080 0-6.26 0.241-6.26 5.859zM11.251 18.153c0.107 1.873-1.498 3.264-3.906 3.451-2.461 0.187-4.468-0.936-4.602-2.809-0.054-0.91 0.348-1.793 1.124-2.488 0.776-0.722 1.873-1.15 3.050-1.231 0.134 0 0.268-0.027 0.401-0.027 2.274 0 3.826 1.338 3.933 3.103zM9.646 4.803c0.615 2.114-0.321 4.334-1.766 4.762-0.161 0.054-0.348 0.080-0.508 0.080-1.338 0-2.649-1.338-3.13-3.21-0.268-1.043-0.241-1.953 0.054-2.836 0.321-0.856 0.856-1.445 1.552-1.632 0.161-0.054 0.348-0.080 0.508-0.080 1.605 0 2.649 0.669 3.291 2.916zM19.999 9.432v-4.013h-2.542v4.013h-4.013v2.542h4.013v4.013h2.542v-4.013h4.013v-2.542h-4.013z"></path>
        </symbol>
        <symbol id="icon-heart-empty" viewBox="0 0 24 24">
            <title>heart-empty</title>
            <path d="M22.008 3.848c-2.344-2.149-6.112-2.149-8.456 0l-1.563 1.451-1.591-1.451c-2.316-2.149-6.112-2.149-8.428 0-2.623 2.4-2.623 6.307 0 8.735l10.019 9.181 10.019-9.209c2.651-2.4 2.651-6.307 0-8.707zM20.529 11.131l-8.54 7.953-8.54-7.953c-0.865-0.809-1.2-1.842-1.2-2.93s0.195-2.009 1.060-2.791c0.753-0.698 1.786-1.088 2.874-1.088s2.121 0.67 2.874 1.367l2.93 2.54 2.93-2.54c0.753-0.698 1.786-1.367 2.874-1.367s2.121 0.391 2.874 1.088c0.865 0.781 1.060 1.702 1.060 2.791s-0.335 2.121-1.2 2.93z"></path>
        </symbol>
        <symbol id="icon-megaphone" viewBox="0 0 24 24">
            <title>megaphone</title>
            <path d="M21.623 8.029c-2.107-4.906-5.493-8.64-7.226-7.946-2.906 1.2 1.733 6.88-12.586 12.719-1.227 0.507-1.547 2.507-1.040 3.733 0.507 1.2 2.213 2.4 3.44 1.893 0.213-0.080 1.013-0.347 1.013-0.347 0.88 1.2 1.813 0.48 2.133 1.227 0.4 0.907 1.253 2.88 1.547 3.546s0.96 1.28 1.44 1.12c0.48-0.187 2.107-0.8 2.747-1.040 0.613-0.24 0.773-0.8 0.587-1.227-0.213-0.48-1.040-0.613-1.28-1.173s-1.013-2.32-1.253-2.88c-0.32-0.747 0.347-1.387 1.28-1.467 6.533-0.667 7.733 3.36 9.973 2.453 1.68-0.72 1.333-5.68-0.773-10.613zM20.903 16.002c-0.373 0.16-2.96-1.867-4.586-5.68-1.653-3.813-1.44-7.306-1.040-7.466 0.373-0.16 2.88 2.293 4.533 6.106 1.6 3.813 1.467 6.88 1.093 7.040z"></path>
        </symbol>
        <symbol id="icon-pencil" viewBox="0 0 24 24">
            <title>pencil</title>
            <path d="M22.091 1.925c-2.23-2.23-3.894-1.897-3.894-1.897l-7.754 7.787-8.852 8.852-1.564 7.321 7.321-1.564 16.606-16.606c0 0 0.333-1.664-1.864-3.894zM6.916 21.56l-2.496 0.532c-0.233-0.433-0.532-0.899-1.065-1.431s-0.965-0.832-1.431-1.065l0.532-2.496 0.732-0.732c0 0 1.364 0.033 2.895 1.564s1.564 2.895 1.564 2.895l-0.732 0.732z"></path>
        </symbol>
        <symbol id="icon-rocket" viewBox="0 0 24 24">
            <title>rocket</title>
            <path d="M0.781 23.866l-0.734 0.015-0.013-0.762c0-3.75 0.754-4.542 2.357-5.341 0.461-0.201 0.858-0.434 1.223-0.706l-0.016 0.011 0.91 1.165c-0.42 0.317-0.896 0.606-1.4 0.845l-0.050 0.021c-0.962 0.478-1.442 0.754-1.517 3.272 2.614-0.097 2.908-0.747 3.378-1.718 0.221-0.487 0.462-0.904 0.739-1.293l-0.016 0.024 1.108 1.008c-0.169 0.279-0.345 0.615-0.502 0.961l-0.025 0.062c-0.742 1.539-1.482 2.435-5.441 2.435zM16.48 10.443c-1.654-0-2.995-1.341-2.995-2.995s1.341-2.995 2.995-2.995 2.995 1.341 2.995 2.995v0c-0.003 1.654-1.342 2.993-2.996 2.995h-0zM16.48 5.953c-0.825 0-1.494 0.669-1.494 1.494s0.669 1.494 1.494 1.494c0.825 0 1.494-0.669 1.494-1.494v0c-0.003-0.824-0.67-1.491-1.494-1.494h-0zM9.981 23.993c-0.083-0.001-0.162-0.015-0.237-0.039l0.006 0.002c-0.247-0.082-0.434-0.283-0.495-0.533l-0.001-0.005-0.909-3.847-1.688-1.875c-0.81-0.896-1.315-1.457-1.619-1.83l-4.457-1.023c-0.334-0.078-0.579-0.373-0.579-0.725 0-0.189 0.071-0.362 0.187-0.493l-0.001 0.001 2.738-2.973c0.138-0.152 0.337-0.246 0.557-0.246 0.001 0 0.001 0 0.002 0h4.155c0.258-0.471 0.563-1.076 0.882-1.711 0.807-1.809 1.71-3.362 2.755-4.805l-0.053 0.077c0.994-1.212 2.278-2.15 3.748-2.713l0.062-0.021c2.154-0.776 4.639-1.224 7.229-1.224 0.342 0 0.683 0.008 1.021 0.023l-0.048-0.002c0.373 0.030 0.667 0.328 0.691 0.7l0 0.002c0.013 0.194 0.279 4.848-0.976 8.224-0.504 1.488-1.383 2.738-2.526 3.679l-0.014 0.011c-1.046 0.934-3.572 2.114-5.263 3.055-0.621 0.351-1.28 0.702-1.652 0.934v3.854c0 0 0 0 0 0 0 0.227-0.101 0.43-0.26 0.567l-0.001 0.001-2.764 2.756c-0.133 0.111-0.306 0.179-0.494 0.179h-0zM5.975 14.708c0.159 0.179 2.234 2.48 3.608 4.004 0.080 0.091 0.14 0.201 0.171 0.323l0.001 0.006 0.672 2.838 1.57-1.733v-3.899c0-0.001 0-0.002 0-0.004 0-0.233 0.107-0.441 0.274-0.578l0.001-0.001c0.599-0.41 1.3-0.829 2.026-1.207l0.117-0.055c1.542-0.866 4.074-2.047 5-2.868 0.976-0.792 1.715-1.842 2.116-3.046l0.013-0.047c0.585-1.846 0.922-3.97 0.922-6.172 0-0.27-0.005-0.539-0.015-0.806l0.001 0.039c-0.073-0.001-0.159-0.001-0.245-0.001-2.385 0-4.674 0.414-6.798 1.173l0.141-0.044c-1.286 0.492-2.364 1.285-3.185 2.294l-0.011 0.014c-0.904 1.275-1.74 2.726-2.433 4.256l-0.067 0.166c-0.441 0.881-0.822 1.643-1.152 2.181-0.132 0.216-0.367 0.359-0.635 0.359-0 0-0.001 0-0.001 0h-4.249l-1.678 1.77 3.422 0.784c0.166 0.039 0.307 0.129 0.409 0.253l0.001 0.001z"></path>
        </symbol>
        <symbol id="icon-twitter" viewBox="0 0 24 24">
            <title>twitter</title>
            <path d="M23.993 4.564c-0.885 0.391-1.823 0.651-2.813 0.781 1.016-0.599 1.797-1.563 2.162-2.709-0.938 0.573-2.005 0.964-3.125 1.198-0.885-0.964-2.162-1.563-3.594-1.563-2.709-0.026-4.922 2.188-4.922 4.896 0 0.391 0.052 0.755 0.13 1.12-4.089-0.208-7.709-2.162-10.131-5.131-0.417 0.729-0.677 1.563-0.677 2.474 0 1.693 0.859 3.203 2.188 4.089-0.807-0.026-1.563-0.234-2.214-0.625 0 0.026 0 0.052 0 0.052 0 2.37 1.693 4.375 3.933 4.818-0.417 0.104-0.859 0.182-1.302 0.182-0.313 0-0.625-0.026-0.938-0.078 0.625 1.953 2.448 3.386 4.584 3.412-1.693 1.328-3.803 2.11-6.094 2.11-0.391 0-0.781-0.026-1.172-0.078 2.188 1.406 4.766 2.214 7.527 2.214 9.037 0 13.986-7.501 13.986-13.986 0-0.208 0-0.417-0.026-0.625 1.016-0.703 1.849-1.563 2.5-2.552z"></path>
        </symbol>
    </defs>
</svg>
